<mxfile host="app.diagrams.net" modified="2024-04-29T15:04:14.595Z" agent="Mozilla/5.0 (Windows NT 10.0; Win64; x64) AppleWebKit/537.36 (KHTML, like Gecko) Chrome/124.0.0.0 Safari/537.36" etag="rAH1ey1Sx_EKhAnWtijr" version="24.2.5" type="device">
  <diagram name="Strona-1" id="n9O-p34l7nQlkgMxFuFP">
    <mxGraphModel dx="2514" dy="925" grid="1" gridSize="10" guides="1" tooltips="1" connect="1" arrows="1" fold="1" page="1" pageScale="1" pageWidth="827" pageHeight="1169" math="0" shadow="0">
      <root>
        <mxCell id="0" />
        <mxCell id="1" parent="0" />
        <mxCell id="eHobRwSUlXeHVb_WcdIb-17" style="edgeStyle=orthogonalEdgeStyle;rounded=0;orthogonalLoop=1;jettySize=auto;html=1;exitX=0.5;exitY=0;exitDx=0;exitDy=0;entryX=0.5;entryY=1;entryDx=0;entryDy=0;" parent="1" source="eHobRwSUlXeHVb_WcdIb-1" target="eHobRwSUlXeHVb_WcdIb-15" edge="1">
          <mxGeometry relative="1" as="geometry" />
        </mxCell>
        <mxCell id="eHobRwSUlXeHVb_WcdIb-18" style="edgeStyle=orthogonalEdgeStyle;rounded=0;orthogonalLoop=1;jettySize=auto;html=1;exitX=0.5;exitY=0;exitDx=0;exitDy=0;entryX=0.5;entryY=1;entryDx=0;entryDy=0;" parent="1" source="eHobRwSUlXeHVb_WcdIb-1" target="eHobRwSUlXeHVb_WcdIb-16" edge="1">
          <mxGeometry relative="1" as="geometry" />
        </mxCell>
        <mxCell id="eHobRwSUlXeHVb_WcdIb-21" style="edgeStyle=orthogonalEdgeStyle;rounded=0;orthogonalLoop=1;jettySize=auto;html=1;exitX=0.5;exitY=0;exitDx=0;exitDy=0;entryX=0.5;entryY=1;entryDx=0;entryDy=0;" parent="1" source="eHobRwSUlXeHVb_WcdIb-1" target="eHobRwSUlXeHVb_WcdIb-20" edge="1">
          <mxGeometry relative="1" as="geometry" />
        </mxCell>
        <mxCell id="eHobRwSUlXeHVb_WcdIb-1" value="wycieczka" style="rounded=0;whiteSpace=wrap;html=1;" parent="1" vertex="1">
          <mxGeometry x="10" y="160" width="200" height="40" as="geometry" />
        </mxCell>
        <mxCell id="eHobRwSUlXeHVb_WcdIb-2" value="oferta" style="rounded=0;whiteSpace=wrap;html=1;" parent="1" vertex="1">
          <mxGeometry x="480" y="50" width="200" height="40" as="geometry" />
        </mxCell>
        <mxCell id="eHobRwSUlXeHVb_WcdIb-4" value="zamówienie/rezerwacja" style="rounded=0;whiteSpace=wrap;html=1;" parent="1" vertex="1">
          <mxGeometry x="480" y="300" width="200" height="40" as="geometry" />
        </mxCell>
        <mxCell id="eHobRwSUlXeHVb_WcdIb-7" style="edgeStyle=orthogonalEdgeStyle;rounded=0;orthogonalLoop=1;jettySize=auto;html=1;entryX=1;entryY=0.5;entryDx=0;entryDy=0;" parent="1" source="eHobRwSUlXeHVb_WcdIb-6" target="eHobRwSUlXeHVb_WcdIb-1" edge="1">
          <mxGeometry relative="1" as="geometry" />
        </mxCell>
        <mxCell id="eHobRwSUlXeHVb_WcdIb-9" style="edgeStyle=orthogonalEdgeStyle;rounded=0;orthogonalLoop=1;jettySize=auto;html=1;exitX=1;exitY=0.5;exitDx=0;exitDy=0;entryX=0;entryY=0.5;entryDx=0;entryDy=0;" parent="1" source="eHobRwSUlXeHVb_WcdIb-6" target="eHobRwSUlXeHVb_WcdIb-2" edge="1">
          <mxGeometry relative="1" as="geometry" />
        </mxCell>
        <mxCell id="eHobRwSUlXeHVb_WcdIb-10" style="edgeStyle=orthogonalEdgeStyle;rounded=0;orthogonalLoop=1;jettySize=auto;html=1;exitX=1;exitY=0.5;exitDx=0;exitDy=0;entryX=0;entryY=0.5;entryDx=0;entryDy=0;" parent="1" source="eHobRwSUlXeHVb_WcdIb-6" target="eHobRwSUlXeHVb_WcdIb-4" edge="1">
          <mxGeometry relative="1" as="geometry" />
        </mxCell>
        <mxCell id="eHobRwSUlXeHVb_WcdIb-6" value="zawiera" style="rhombus;whiteSpace=wrap;html=1;" parent="1" vertex="1">
          <mxGeometry x="268" y="150" width="146" height="60" as="geometry" />
        </mxCell>
        <mxCell id="eHobRwSUlXeHVb_WcdIb-12" style="edgeStyle=orthogonalEdgeStyle;rounded=0;orthogonalLoop=1;jettySize=auto;html=1;entryX=0.5;entryY=1;entryDx=0;entryDy=0;" parent="1" source="eHobRwSUlXeHVb_WcdIb-11" target="eHobRwSUlXeHVb_WcdIb-1" edge="1">
          <mxGeometry relative="1" as="geometry" />
        </mxCell>
        <mxCell id="eHobRwSUlXeHVb_WcdIb-14" style="edgeStyle=orthogonalEdgeStyle;rounded=0;orthogonalLoop=1;jettySize=auto;html=1;exitX=0.5;exitY=1;exitDx=0;exitDy=0;entryX=0.5;entryY=0;entryDx=0;entryDy=0;" parent="1" source="eHobRwSUlXeHVb_WcdIb-11" target="eHobRwSUlXeHVb_WcdIb-13" edge="1">
          <mxGeometry relative="1" as="geometry" />
        </mxCell>
        <mxCell id="eHobRwSUlXeHVb_WcdIb-11" value="zawiera (opcjonalnie)" style="rhombus;whiteSpace=wrap;html=1;" parent="1" vertex="1">
          <mxGeometry x="20" y="320" width="180" height="60" as="geometry" />
        </mxCell>
        <mxCell id="eHobRwSUlXeHVb_WcdIb-13" value="dodatkowe atrakcje" style="rounded=0;whiteSpace=wrap;html=1;" parent="1" vertex="1">
          <mxGeometry x="10" y="560" width="200" height="50" as="geometry" />
        </mxCell>
        <mxCell id="eHobRwSUlXeHVb_WcdIb-15" value="miejsce" style="ellipse;whiteSpace=wrap;html=1;" parent="1" vertex="1">
          <mxGeometry x="160" y="30" width="120" height="40" as="geometry" />
        </mxCell>
        <mxCell id="eHobRwSUlXeHVb_WcdIb-16" value="data" style="ellipse;whiteSpace=wrap;html=1;" parent="1" vertex="1">
          <mxGeometry x="20" y="30" width="120" height="40" as="geometry" />
        </mxCell>
        <mxCell id="eHobRwSUlXeHVb_WcdIb-20" value="limit miejsc" style="ellipse;whiteSpace=wrap;html=1;" parent="1" vertex="1">
          <mxGeometry x="-130" y="30" width="120" height="40" as="geometry" />
        </mxCell>
        <mxCell id="eHobRwSUlXeHVb_WcdIb-23" style="edgeStyle=orthogonalEdgeStyle;rounded=0;orthogonalLoop=1;jettySize=auto;html=1;exitX=0;exitY=0.5;exitDx=0;exitDy=0;" parent="1" source="eHobRwSUlXeHVb_WcdIb-22" target="eHobRwSUlXeHVb_WcdIb-4" edge="1">
          <mxGeometry relative="1" as="geometry" />
        </mxCell>
        <mxCell id="eHobRwSUlXeHVb_WcdIb-26" style="edgeStyle=orthogonalEdgeStyle;rounded=0;orthogonalLoop=1;jettySize=auto;html=1;exitX=1;exitY=0.5;exitDx=0;exitDy=0;entryX=0;entryY=0.5;entryDx=0;entryDy=0;" parent="1" source="eHobRwSUlXeHVb_WcdIb-22" target="eHobRwSUlXeHVb_WcdIb-25" edge="1">
          <mxGeometry relative="1" as="geometry" />
        </mxCell>
        <mxCell id="eHobRwSUlXeHVb_WcdIb-22" value="składa" style="rhombus;whiteSpace=wrap;html=1;" parent="1" vertex="1">
          <mxGeometry x="780" y="290" width="190" height="60" as="geometry" />
        </mxCell>
        <mxCell id="eHobRwSUlXeHVb_WcdIb-25" value="klient" style="rounded=0;whiteSpace=wrap;html=1;" parent="1" vertex="1">
          <mxGeometry x="1060" y="300" width="200" height="40" as="geometry" />
        </mxCell>
        <mxCell id="eHobRwSUlXeHVb_WcdIb-28" style="edgeStyle=orthogonalEdgeStyle;rounded=0;orthogonalLoop=1;jettySize=auto;html=1;entryX=0.5;entryY=1;entryDx=0;entryDy=0;" parent="1" source="eHobRwSUlXeHVb_WcdIb-27" target="eHobRwSUlXeHVb_WcdIb-4" edge="1">
          <mxGeometry relative="1" as="geometry" />
        </mxCell>
        <mxCell id="eHobRwSUlXeHVb_WcdIb-30" style="edgeStyle=orthogonalEdgeStyle;rounded=0;orthogonalLoop=1;jettySize=auto;html=1;exitX=0.5;exitY=1;exitDx=0;exitDy=0;entryX=0.5;entryY=0;entryDx=0;entryDy=0;" parent="1" source="eHobRwSUlXeHVb_WcdIb-27" target="eHobRwSUlXeHVb_WcdIb-29" edge="1">
          <mxGeometry relative="1" as="geometry" />
        </mxCell>
        <mxCell id="eHobRwSUlXeHVb_WcdIb-27" value="zgłoszony" style="rhombus;whiteSpace=wrap;html=1;" parent="1" vertex="1">
          <mxGeometry x="485" y="400" width="190" height="50" as="geometry" />
        </mxCell>
        <mxCell id="eHobRwSUlXeHVb_WcdIb-29" value="uczestnik" style="rounded=0;whiteSpace=wrap;html=1;" parent="1" vertex="1">
          <mxGeometry x="520" y="560" width="200" height="50" as="geometry" />
        </mxCell>
        <mxCell id="eHobRwSUlXeHVb_WcdIb-32" style="edgeStyle=orthogonalEdgeStyle;rounded=0;orthogonalLoop=1;jettySize=auto;html=1;entryX=0;entryY=0.5;entryDx=0;entryDy=0;" parent="1" source="eHobRwSUlXeHVb_WcdIb-31" target="eHobRwSUlXeHVb_WcdIb-29" edge="1">
          <mxGeometry relative="1" as="geometry" />
        </mxCell>
        <mxCell id="eHobRwSUlXeHVb_WcdIb-33" style="edgeStyle=orthogonalEdgeStyle;rounded=0;orthogonalLoop=1;jettySize=auto;html=1;exitX=0;exitY=0.5;exitDx=0;exitDy=0;entryX=1;entryY=0.5;entryDx=0;entryDy=0;" parent="1" source="eHobRwSUlXeHVb_WcdIb-31" target="eHobRwSUlXeHVb_WcdIb-13" edge="1">
          <mxGeometry relative="1" as="geometry" />
        </mxCell>
        <mxCell id="eHobRwSUlXeHVb_WcdIb-31" value="idzie" style="rhombus;whiteSpace=wrap;html=1;" parent="1" vertex="1">
          <mxGeometry x="268" y="560" width="190" height="50" as="geometry" />
        </mxCell>
        <mxCell id="eHobRwSUlXeHVb_WcdIb-35" style="edgeStyle=orthogonalEdgeStyle;rounded=0;orthogonalLoop=1;jettySize=auto;html=1;exitX=0.5;exitY=0;exitDx=0;exitDy=0;entryX=0.5;entryY=1;entryDx=0;entryDy=0;" parent="1" source="eHobRwSUlXeHVb_WcdIb-34" target="eHobRwSUlXeHVb_WcdIb-25" edge="1">
          <mxGeometry relative="1" as="geometry" />
        </mxCell>
        <mxCell id="eHobRwSUlXeHVb_WcdIb-38" style="edgeStyle=orthogonalEdgeStyle;rounded=0;orthogonalLoop=1;jettySize=auto;html=1;exitX=0.5;exitY=1;exitDx=0;exitDy=0;entryX=0.5;entryY=0;entryDx=0;entryDy=0;" parent="1" source="eHobRwSUlXeHVb_WcdIb-34" target="eHobRwSUlXeHVb_WcdIb-36" edge="1">
          <mxGeometry relative="1" as="geometry" />
        </mxCell>
        <mxCell id="eHobRwSUlXeHVb_WcdIb-39" style="edgeStyle=orthogonalEdgeStyle;rounded=0;orthogonalLoop=1;jettySize=auto;html=1;exitX=0.5;exitY=1;exitDx=0;exitDy=0;entryX=0.5;entryY=0;entryDx=0;entryDy=0;" parent="1" source="eHobRwSUlXeHVb_WcdIb-34" target="eHobRwSUlXeHVb_WcdIb-37" edge="1">
          <mxGeometry relative="1" as="geometry" />
        </mxCell>
        <mxCell id="eHobRwSUlXeHVb_WcdIb-34" value="jest" style="rhombus;whiteSpace=wrap;html=1;" parent="1" vertex="1">
          <mxGeometry x="1065" y="410" width="190" height="50" as="geometry" />
        </mxCell>
        <mxCell id="eHobRwSUlXeHVb_WcdIb-36" value="firma" style="rounded=0;whiteSpace=wrap;html=1;" parent="1" vertex="1">
          <mxGeometry x="970" y="540" width="200" height="40" as="geometry" />
        </mxCell>
        <mxCell id="eHobRwSUlXeHVb_WcdIb-37" value="osobą fizyczną" style="rounded=0;whiteSpace=wrap;html=1;" parent="1" vertex="1">
          <mxGeometry x="1200" y="540" width="200" height="40" as="geometry" />
        </mxCell>
        <mxCell id="eHobRwSUlXeHVb_WcdIb-40" value="płatność" style="rounded=0;whiteSpace=wrap;html=1;" parent="1" vertex="1">
          <mxGeometry x="815" y="160" width="120" height="40" as="geometry" />
        </mxCell>
        <mxCell id="eHobRwSUlXeHVb_WcdIb-43" style="edgeStyle=orthogonalEdgeStyle;rounded=0;orthogonalLoop=1;jettySize=auto;html=1;exitX=0.5;exitY=1;exitDx=0;exitDy=0;entryX=0.5;entryY=0;entryDx=0;entryDy=0;" parent="1" source="eHobRwSUlXeHVb_WcdIb-41" target="eHobRwSUlXeHVb_WcdIb-25" edge="1">
          <mxGeometry relative="1" as="geometry" />
        </mxCell>
        <mxCell id="eHobRwSUlXeHVb_WcdIb-44" style="edgeStyle=orthogonalEdgeStyle;rounded=0;orthogonalLoop=1;jettySize=auto;html=1;exitX=0;exitY=0.5;exitDx=0;exitDy=0;entryX=1;entryY=0.5;entryDx=0;entryDy=0;" parent="1" source="eHobRwSUlXeHVb_WcdIb-41" target="eHobRwSUlXeHVb_WcdIb-40" edge="1">
          <mxGeometry relative="1" as="geometry" />
        </mxCell>
        <mxCell id="eHobRwSUlXeHVb_WcdIb-41" value="dokonuje" style="rhombus;whiteSpace=wrap;html=1;" parent="1" vertex="1">
          <mxGeometry x="1065" y="150" width="190" height="60" as="geometry" />
        </mxCell>
        <mxCell id="eHobRwSUlXeHVb_WcdIb-45" style="edgeStyle=orthogonalEdgeStyle;rounded=0;orthogonalLoop=1;jettySize=auto;html=1;exitX=1;exitY=0.5;exitDx=0;exitDy=0;entryX=0;entryY=0.5;entryDx=0;entryDy=0;" parent="1" source="eHobRwSUlXeHVb_WcdIb-42" target="eHobRwSUlXeHVb_WcdIb-40" edge="1">
          <mxGeometry relative="1" as="geometry" />
        </mxCell>
        <mxCell id="eHobRwSUlXeHVb_WcdIb-46" style="edgeStyle=orthogonalEdgeStyle;rounded=0;orthogonalLoop=1;jettySize=auto;html=1;exitX=0.5;exitY=1;exitDx=0;exitDy=0;entryX=0.5;entryY=0;entryDx=0;entryDy=0;" parent="1" source="eHobRwSUlXeHVb_WcdIb-42" target="eHobRwSUlXeHVb_WcdIb-4" edge="1">
          <mxGeometry relative="1" as="geometry" />
        </mxCell>
        <mxCell id="eHobRwSUlXeHVb_WcdIb-42" value="jest opłacone" style="rhombus;whiteSpace=wrap;html=1;" parent="1" vertex="1">
          <mxGeometry x="530" y="150" width="190" height="60" as="geometry" />
        </mxCell>
      </root>
    </mxGraphModel>
  </diagram>
</mxfile>
